<svg width="112" height="20" viewBox="0 0 112 20" fill="none" xmlns="http://www.w3.org/2000/svg">
<path d="M29.9503 20C13.8788 19.9537 19.0474 10.0131 9.98456 10.0002V0C23.7343 0.0200138 20.0278 9.98561 29.9503 9.99979V19.9996V20Z" fill="white"/>
<path d="M39.9349 0H29.9503V9.99979H39.9349V0Z" fill="white"/>
<path d="M9.98455 9.99979H0V19.9996H9.98455V9.99979Z" fill="white"/>
<path d="M79.053 5.28927V1.08347H82.2806V5.28853H85.2893V8.07375H82.2806V15.5012C82.2806 16.5118 82.6632 16.9211 84.1952 16.9211C84.6332 16.9211 84.9067 16.9211 85.5355 16.8394V19.5974C84.8794 19.7063 84.0308 19.7887 83.2656 19.7887C80.2296 19.7887 79.0537 18.6692 79.0537 16.0202V8.07449H77.0573V5.28927H79.0537H79.053Z" fill="white"/>
<path d="M51.1756 0H54.8028L64.0361 13.7995V0H67.4163V19.6982H64.3383L54.5559 5.23995V19.6982H51.1756V0Z" fill="white"/>
<path d="M74.5152 3.37406H71.1077V0H74.5152V3.37406ZM71.163 5.29442H74.4606V19.6975H71.163V5.29516V5.29442Z" fill="white"/>
<path d="M88.3157 5.29515H91.6134V7.43485C92.2732 6.09082 93.7845 5.21271 95.5701 5.21271C95.8724 5.21271 96.1474 5.23994 96.5042 5.26791V8.56027C96.0648 8.47783 95.7346 8.47783 95.2952 8.47783C93.0967 8.47783 91.6126 9.93154 91.6126 12.1264V19.6982H88.3149V5.29515H88.3157Z" fill="white"/>
<path d="M103.794 5.0206C105.525 5.0206 106.954 5.6514 107.943 6.83129V5.29515H111.241V19.6982H107.943V18.1893C106.954 19.3692 105.525 20 103.794 20C99.5623 20 97.4464 16.3514 97.4464 12.5107C97.4464 8.66994 99.5623 5.02134 103.794 5.02134V5.0206ZM104.454 17.1191C106.872 17.1191 108.026 15.1163 108.026 12.9493V12.0992C108.026 9.9043 106.927 7.90151 104.454 7.90151C102.146 7.90151 100.771 9.65699 100.771 12.5107C100.771 15.3643 102.146 17.1198 104.454 17.1198V17.1191Z" fill="white"/>
</svg>
